<svg id="Layer_1" height="512" viewBox="0 0 512 512" width="512" xmlns="http://www.w3.org/2000/svg"><g><g><path d="m256 112c-26.468 0-48-21.533-48-48s21.532-48 48-48 48 21.533 48 48-21.532 48-48 48zm0-64c-8.822 0-16 7.178-16 16s7.178 16 16 16 16-7.178 16-16-7.178-16-16-16z" fill="#f06423"/></g><g><path d="m224 80c-8.837 0-16-7.164-16-16 0-26.467 21.533-48 48-48 8.837 0 16 7.164 16 16s-7.163 16-16 16c-8.822 0-16 7.178-16 16 0 8.836-7.163 16-16 16z" fill="#faa019"/></g><g><circle cx="256" cy="448" fill="#f06423" r="48"/></g><g><path d="m432 448h-352c-17.673 0-32-14.327-32-32 0-17.673 14.327-32 32-32h352c17.673 0 32 14.327 32 32 0 17.673-14.327 32-32 32z" fill="#faa019"/></g><g><g><path d="m80 384 8.569-8.569c15.002-15.002 23.431-35.351 23.431-56.568v-78.863c0-79.529 64.471-144 144-144 79.529 0 144 64.471 144 144v78.863c0 21.217 8.429 41.566 23.431 56.569l8.569 8.568z" fill="#faa019"/></g><g><path d="m80 384 8.569-8.569c15.002-15.002 23.431-35.351 23.431-56.568v-78.863c0-79.529 64.471-144 144-144 79.529 0 144 64.471 144 144v78.863c0 21.217 8.429 41.566 23.431 56.569l8.569 8.568z" fill="#faa019"/></g><g><path d="m144 318.863c0 21.218-8.429 41.567-23.433 56.57l-8.567 8.567h16l8.567-8.567c15.004-15.003 23.433-35.352 23.433-56.57v-94.863c0-4.418-3.582-8-8-8-4.418 0-8 3.582-8 8z" fill="#ffd205"/></g><g><path d="m423.431 375.432c-15.003-15.003-23.431-35.352-23.431-56.569v-78.863c0-39.765-32.235-72-72-72-39.765 0-72 32.235-72 72v144h176z" fill="#f06423"/></g></g><g><path d="m72 336c-4.418 0-8-3.582-8-8v-112c0-4.418 3.582-8 8-8 4.418 0 8 3.582 8 8v112c0 4.418-3.582 8-8 8z" fill="#faa019"/></g><g><path d="m40 304c-4.418 0-8-3.582-8-8v-48c0-4.418 3.582-8 8-8 4.418 0 8 3.582 8 8v48c0 4.418-3.582 8-8 8z" fill="#faa019"/></g><g><path d="m440 336c4.418 0 8-3.582 8-8v-112c0-4.418-3.582-8-8-8-4.418 0-8 3.582-8 8v112c0 4.418 3.582 8 8 8z" fill="#faa019"/></g><g><path d="m472 304c4.418 0 8-3.582 8-8v-48c0-4.418-3.582-8-8-8-4.418 0-8 3.582-8 8v48c0 4.418 3.582 8 8 8z" fill="#faa019"/></g></g></svg>