<svg fill="none" height="512" viewBox="0 0 24 24" width="512" xmlns="http://www.w3.org/2000/svg" xmlns:xlink="http://www.w3.org/1999/xlink"><linearGradient id="lg1"><stop offset="0" stop-color="#138bd7"/><stop offset="1" stop-color="#62aafb"/></linearGradient><linearGradient id="paint0_linear_3397_3693" gradientUnits="userSpaceOnUse" x1="6.5" x2="6.5" xlink:href="#lg1" y1="2" y2="11"/><linearGradient id="paint1_linear_3397_3693" gradientUnits="userSpaceOnUse" x1="11.224" x2="11.224" xlink:href="#lg1" y1="7.16" y2="22.417"/><linearGradient id="paint2_linear_3397_3693" gradientUnits="userSpaceOnUse" x1="18.468" x2="18.468" xlink:href="#lg1" y1="2.752" y2="11.74"/><path d="m6.5 2c-1.06 0-2.04.37-2.81.99-1.04.82-1.69 2.09-1.69 3.51 0 .84.24 1.64.65 2.32.54.9 1.39 1.6 2.41 1.94.45.16.93.24 1.44.24 1.14 0 2.17-.42 2.96-1.12.35-.3.65-.66.89-1.06.21-.35.37-.72.48-1.12.11-.38.17-.79.17-1.2 0-2.49-2.01-4.5-4.5-4.5zm1.66 5.25h-.89v.93c0 .41-.34.75-.75.75s-.75-.33-.75-.75v-.93h-.97c-.41 0-.75-.34-.75-.75s.34-.75.75-.75h.97v-.93c0-.41.34-.75.75-.75s.75.33.75.75v.93h.89c.41 0 .75.34.75.75s-.33.75-.75.75z" fill="url(#paint0_linear_3397_3693)"/><path d="m16 21.29-9.36003 1.1c-.65.08-1.23-.02-1.72-.26-.52-.26-.93-.66-1.19-1.19-.24-.49-.33-1.06-.26-1.7l.85-7.15c.08.03.16.06.24.08.61.22 1.26.33 1.94.33 1.46 0 2.87-.53 3.94003-1.48.46-.4.87-.88 1.2-1.43003.28-.47.49-.97.63-1.46.07-.26.13-.54.17-.82.01-.05.01-.1.01-.15l.17.01 6.08 6.09003.26 4.42c.25 2.48-.61 3.34-2.96 3.61z" fill="url(#paint1_linear_3397_3693)"/><path d="m22 10.28-2.07 1.31c-.39.24-.89.19-1.21-.14l-4.43-4.42997c-.32-.32-.38-.82-.14-1.21l1.31-2.07c.8-1.26 2.4-1.32 3.59-.15l3.11 3.11c1.09 1.11 1.02 2.83-.16 3.57997z" fill="url(#paint2_linear_3397_3693)"/></svg>