<?xml version="1.0" encoding="iso-8859-1"?>
<!-- Generator: Adobe Illustrator 19.0.0, SVG Export Plug-In . SVG Version: 6.00 Build 0)  -->
<svg version="1.1" id="Capa_1" xmlns="http://www.w3.org/2000/svg" xmlns:xlink="http://www.w3.org/1999/xlink" x="0px" y="0px"
	 viewBox="0 0 512 512" style="enable-background:new 0 0 512 512;" xml:space="preserve">
<path style="fill:#E1E4FB;" d="M391,45v467H45c-24.901,0-45-21.101-45-46V151l10.8-3.9L141.6,17.401L150,0h196
	C370.901,0,391,20.099,391,45z"/>
<g>
	<path style="fill:#C5C9F7;" d="M391,45v467H195V0h151C370.901,0,391,20.099,391,45z"/>
	<path style="fill:#C5C9F7;" d="M0,151h135c8.291,0,15-6.709,15-15V0L0,151z"/>
</g>
<path style="fill:#1689FC;" d="M301.199,406c0,8.399-6.899,15-15,15H75c-8.401,0-15-6.601-15-15c0-8.401,6.599-15,15-15h211.199
	C294.3,391,301.199,397.599,301.199,406z"/>
<path style="fill:#136EF1;" d="M301.199,406c0,8.399-6.899,15-15,15H195v-30h91.199C294.3,391,301.199,397.599,301.199,406z"/>
<path style="fill:#1689FC;" d="M303.9,346c0,8.399-6.899,15-15,15H75c-8.401,0-15-6.601-15-15c0-8.401,6.599-15,15-15h213.9
	C297.001,331,303.9,337.599,303.9,346z"/>
<path style="fill:#136EF1;" d="M303.9,346c0,8.399-6.899,15-15,15H195v-30h93.9C297.001,331,303.9,337.599,303.9,346z"/>
<path style="fill:#1689FC;" d="M275.7,286c0,8.399-6.899,15-15,15H75c-8.401,0-15-6.601-15-15c0-8.401,6.599-15,15-15h185.7
	C268.801,271,275.7,277.599,275.7,286z"/>
<path style="fill:#136EF1;" d="M275.7,286c0,8.399-6.899,15-15,15H195v-30h65.7C268.801,271,275.7,277.599,275.7,286z"/>
<path style="fill:#1689FC;" d="M331,226c0,8.399-7.599,15-16,15H75c-8.401,0-15-6.601-15-15c0-8.401,6.599-15,15-15h240
	C323.401,211,331,217.599,331,226z"/>
<path style="fill:#136EF1;" d="M331,226c0,8.399-7.599,15-16,15H195v-30h120C323.401,211,331,217.599,331,226z"/>
<path style="fill:#1689FC;" d="M331,166c0,8.399-7.599,15-16,15H195c-8.401,0-15-6.601-15-15c0-8.401,6.599-15,15-15h120
	C323.401,151,331,157.599,331,166z"/>
<path style="fill:#136EF1;" d="M331,166c0,8.399-7.599,15-16,15H195v-30h120C323.401,151,331,157.599,331,166z"/>
<path style="fill:#1689FC;" d="M331,106c0,8.401-7.599,15-16,15H195c-8.401,0-15-6.599-15-15s6.599-15,15-15h120
	C323.401,91,331,97.599,331,106z"/>
<path style="fill:#136EF1;" d="M331,106c0,8.401-7.599,15-16,15H195V91h120C323.401,91,331,97.599,331,106z"/>
<path style="fill:#78DE28;" d="M391,271c-66.301,0-121,53.699-121,120c0,66.299,54.699,121,121,121s121-54.701,121-121
	C512,324.699,457.301,271,391,271z"/>
<path style="fill:#6ECD24;" d="M512,391c0,66.299-54.699,121-121,121V271C457.301,271,512,324.699,512,391z"/>
<path style="fill:#E1E4FB;" d="M446.499,386.499L391,442l-4.501,4.499C383.8,449.5,379.9,451,376,451s-7.8-1.5-10.499-4.501l-30-30
	c-6-5.7-6-15.3,0-21c5.7-5.999,15.298-5.999,20.999,0l19.501,19.2l15-15l34.501-34.2c5.7-5.999,15.298-5.999,20.999,0
	C452.5,371.199,452.5,380.799,446.499,386.499z"/>
<path style="fill:#C5C9F7;" d="M446.499,386.499L391,442v-42.301l34.501-34.2c5.7-5.999,15.298-5.999,20.999,0
	C452.5,371.199,452.5,380.799,446.499,386.499z"/>
<g>
</g>
<g>
</g>
<g>
</g>
<g>
</g>
<g>
</g>
<g>
</g>
<g>
</g>
<g>
</g>
<g>
</g>
<g>
</g>
<g>
</g>
<g>
</g>
<g>
</g>
<g>
</g>
<g>
</g>
</svg>
