<?xml version="1.0" encoding="iso-8859-1"?>
<!-- Generator: Adobe Illustrator 19.0.0, SVG Export Plug-In . SVG Version: 6.00 Build 0)  -->
<svg version="1.1" id="Capa_1" xmlns="http://www.w3.org/2000/svg" xmlns:xlink="http://www.w3.org/1999/xlink" x="0px" y="0px"
	 viewBox="0 0 512 512" style="enable-background:new 0 0 512 512;" xml:space="preserve">
<path style="fill:#DB710D;" d="M145.501,81.529v-4.982c0-16.683-13.524-30.206-30.206-30.206H30.206
	C13.524,46.341,0,59.865,0,76.548v32.234v341.774c0,8.341,6.762,15.103,15.103,15.103h421.782V111.736
	c0-16.683-13.524-30.206-30.206-30.206L145.501,81.529L145.501,81.529z"/>
<path style="fill:#F58F00;" d="M145.501,81.529v-4.982c0-16.683-13.524-30.206-30.206-30.206H30.206
	C13.524,46.341,0,59.865,0,76.548v32.234v341.774c0,8.341,6.762,15.103,15.103,15.103h201.763V81.529H145.501z"/>
<path style="fill:#FCC200;" d="M481.79,153.435H88.806c-14.338,0-26.701,10.08-29.588,24.125L1.684,457.466
	c2.509,4.862,7.571,8.193,13.419,8.193h438.828c15.397,0,28.33-11.581,30.024-26.885l27.858-251.811
	C513.793,169.075,499.788,153.435,481.79,153.435z"/>
<path style="fill:#FFDE47;" d="M275.402,153.435H88.806c-14.338,0-26.701,10.08-29.588,24.125L1.684,457.466
	c2.509,4.862,7.571,8.193,13.419,8.193h225.751L275.402,153.435z"/>
<g>
</g>
<g>
</g>
<g>
</g>
<g>
</g>
<g>
</g>
<g>
</g>
<g>
</g>
<g>
</g>
<g>
</g>
<g>
</g>
<g>
</g>
<g>
</g>
<g>
</g>
<g>
</g>
<g>
</g>
</svg>
