<svg width="20" height="22" viewBox="0 0 20 22" fill="none" xmlns="http://www.w3.org/2000/svg">
<path fill-rule="evenodd" clip-rule="evenodd" d="M13.75 3.5C13.75 1.84315 15.0931 0.5 16.75 0.5C18.4069 0.5 19.75 1.84315 19.75 3.5C19.75 5.15685 18.4069 6.5 16.75 6.5C15.8933 6.5 15.1212 6.14074 14.5751 5.56624L6.15392 10.2447C6.21665 10.4863 6.25 10.7395 6.25 11C6.25 11.2605 6.21665 11.5137 6.15392 11.7553L14.5751 16.4338C15.1212 15.8593 15.8933 15.5 16.75 15.5C18.4069 15.5 19.75 16.8431 19.75 18.5C19.75 20.1569 18.4069 21.5 16.75 21.5C15.0931 21.5 13.75 20.1569 13.75 18.5C13.75 18.2395 13.7833 17.9863 13.8461 17.7447L5.42488 13.0662C4.87885 13.6407 4.10667 14 3.25 14C1.59315 14 0.25 12.6569 0.25 11C0.25 9.34315 1.59315 8 3.25 8C4.10667 8 4.87885 8.35926 5.42488 8.93377L13.8461 4.25532C13.7833 4.01367 13.75 3.76045 13.75 3.5Z" fill="url(#paint0_linear_1735_3484)"/>
<defs>
<linearGradient id="paint0_linear_1735_3484" x1="10" y1="0.5" x2="10" y2="21.5" gradientUnits="userSpaceOnUse">
<stop stop-color="#48B9FF"/>
<stop offset="1" stop-color="#084BC5"/>
</linearGradient>
</defs>
</svg>
