<svg id="Gradient" height="512" viewBox="0 0 16 16" width="512" xmlns="http://www.w3.org/2000/svg" xmlns:xlink="http://www.w3.org/1999/xlink"><linearGradient id="linear-gradient" gradientUnits="userSpaceOnUse" x1="2.698" x2="13.303" y1="2.698" y2="13.303"><stop offset="0" stop-color="#87f1fc"/><stop offset=".2557" stop-color="#7fd4fb"/><stop offset=".5295" stop-color="#78bcfb"/><stop offset=".7844" stop-color="#74aefa"/><stop offset="1" stop-color="#73a9fa"/></linearGradient><path d="m.5 8a7.5 7.5 0 1 0 7.5-7.5 7.5027 7.5027 0 0 0 -7.5 7.5zm9.42-3.26a.845.845 0 0 1 0 1.18l-1.72 1.73a.4833.4833 0 0 0 0 .7l1.72 1.73a.83.83 0 0 1 -.59 1.42.8671.8671 0 0 1 -.59-.24l-2.66-2.67a.8268.8268 0 0 1 0-1.18l2.66-2.67a.8671.8671 0 0 1 .59-.24.8305.8305 0 0 1 .59.24z" fill="url(#linear-gradient)"/></svg>