<svg width="24" height="24" viewBox="0 0 24 24" fill="none" xmlns="http://www.w3.org/2000/svg">
<path fill-rule="evenodd" clip-rule="evenodd" d="M7.25 5.66448C7.25 4.00763 8.59315 2.66448 10.25 2.66448H13.25C14.9069 2.66448 16.25 4.00763 16.25 5.66448V5.86946C17.1825 5.95482 18.1074 6.06644 19.024 6.2036C20.4781 6.42116 21.5 7.68611 21.5 9.12017V12.1534C21.5 13.3645 20.7664 14.5057 19.5637 14.9056C17.1066 15.7225 14.4792 16.1645 11.75 16.1645C9.02087 16.1645 6.39342 15.7225 3.93627 14.9055C2.73364 14.5057 2 13.3645 2 12.1533V9.12017C2 7.68611 3.02191 6.42116 4.47596 6.2036C5.3926 6.06645 6.31753 5.95482 7.25 5.86946V5.66448ZM14.75 5.66448V5.7553C13.7577 5.69505 12.7574 5.66448 11.75 5.66448C10.7427 5.66448 9.74235 5.69505 8.75 5.75531V5.66448C8.75 4.83605 9.42157 4.16448 10.25 4.16448H13.25C14.0784 4.16448 14.75 4.83605 14.75 5.66448ZM11.75 13.9145C12.1642 13.9145 12.5 13.5787 12.5 13.1645C12.5 12.7503 12.1642 12.4145 11.75 12.4145C11.3358 12.4145 11 12.7503 11 13.1645C11 13.5787 11.3358 13.9145 11.75 13.9145Z" fill="url(#paint0_linear_1735_1961)"/>
<path d="M2.75 18.65V15.8539C2.97304 15.9763 3.21097 16.0807 3.46303 16.1645C6.07087 17.0315 8.85801 18 11.75 18C14.642 18 17.4291 17.0315 20.037 16.1645C20.289 16.0807 20.527 15.9763 20.75 15.854V18.65C20.75 20.1019 19.7028 21.3775 18.2269 21.5734C16.1075 21.8548 13.9455 22 11.75 22C9.55447 22 7.39246 21.8548 5.27314 21.5734C3.79724 21.3775 2.75 20.1019 2.75 18.65Z" fill="url(#paint1_linear_1735_1961)"/>
<defs>
<linearGradient id="paint0_linear_1735_1961" x1="11.75" y1="2.66446" x2="11.75" y2="22" gradientUnits="userSpaceOnUse">
<stop stop-color="#2B5ED7" stop-opacity="0"/>
<stop offset="0.0001" stop-color="#48B9FF"/>
<stop offset="0.9999" stop-color="#2B5ED7"/>
<stop offset="1" stop-color="#084BC5"/>
</linearGradient>
<linearGradient id="paint1_linear_1735_1961" x1="11.75" y1="2.66446" x2="11.75" y2="22" gradientUnits="userSpaceOnUse">
<stop stop-color="#2B5ED7" stop-opacity="0"/>
<stop offset="0.0001" stop-color="#48B9FF"/>
<stop offset="0.9999" stop-color="#2B5ED7"/>
<stop offset="1" stop-color="#084BC5"/>
</linearGradient>
</defs>
</svg>
