<svg id="Capa_1" enable-background="new 0 0 512 512" height="512" viewBox="0 0 512 512" width="512" xmlns="http://www.w3.org/2000/svg"><g><path d="m233.121 45.584v44.969c7.549-.95 15.181-1.448 22.879-1.448s15.33.497 22.878 1.448v-44.969z" fill="#b5dcff"/><path d="m256 45.584h-22.879v44.969c7.549-.95 15.181-1.448 22.879-1.448z" fill="#8bcaff"/><path d="m375.956 126.345 22.726-36.325-28.008-17.076-23.038 36.837c9.82 4.759 19.285 10.29 28.32 16.564z" fill="#b5dcff"/><path d="m385 81.678-14.325-8.734-23.038 36.837c5.039 2.442 9.982 5.091 14.824 7.936z" fill="#8bcaff"/><path d="m164.364 109.781-23.038-37.867-28.008 17.076 22.726 37.356c9.036-6.275 18.5-11.806 28.32-16.565z" fill="#b5dcff"/><path d="m127.449 80.374-14.131 8.616 22.726 37.356c4.547-3.157 9.202-6.126 13.957-8.903z" fill="#8bcaff"/><g><path d="m256.001 512c-56.817 0-110.233-22.126-150.409-62.301-40.176-40.176-62.302-93.592-62.302-150.409s22.126-110.233 62.302-150.408 93.592-62.301 150.409-62.301 110.233 22.126 150.409 62.301 62.301 93.592 62.301 150.408-22.125 110.233-62.301 150.409c-40.177 40.175-93.592 62.301-150.409 62.301z" fill="#7fb3fa"/></g><path d="m154.268 449.699c-40.175-40.176-62.302-93.592-62.302-150.408 0-56.817 22.126-110.233 62.302-150.409 34.381-34.381 78.463-55.529 126.071-60.918-8.024-.908-16.144-1.383-24.338-1.383-56.817 0-110.233 22.126-150.409 62.301s-62.302 93.592-62.302 150.408c0 56.817 22.126 110.233 62.302 150.408 40.176 40.176 93.592 62.302 150.409 62.302 8.194 0 16.314-.475 24.338-1.384-47.608-5.389-91.689-26.536-126.071-60.917z" fill="#64a6f4"/><path d="m290.233 0h-68.466c-7.976 0-14.443 6.466-14.443 14.443v20.949c0 7.977 6.466 14.443 14.443 14.443h68.466c7.977 0 14.443-6.466 14.443-14.443v-20.949c0-7.977-6.466-14.443-14.443-14.443z" fill="#dbedff"/><ellipse cx="256" cy="299.29" fill="#dbedff" rx="173.895" ry="173.895" transform="matrix(.707 -.707 .707 .707 -136.649 268.68)"/><path d="m256.001 125.395-.001 173.895h173.895c0-95.886-78.009-173.895-173.894-173.895z" fill="#dd636e"/><path d="m130.781 299.29c0-87.627 65.152-160.31 149.557-172.184-7.956-1.119-16.079-1.711-24.338-1.711-95.887 0-173.896 78.009-173.896 173.895s78.009 173.895 173.896 173.895c8.259 0 16.382-.592 24.338-1.711-84.404-11.874-149.557-84.557-149.557-172.184z" fill="#b5dcff"/><path d="m422.073 55.63-32.713-19.945c-6.064-3.697-13.977-1.779-17.674 4.285l-9.71 15.926c-3.697 6.064-1.779 13.977 4.285 17.674l32.713 19.946c6.064 3.697 13.977 1.778 17.674-4.286l9.71-15.926c3.697-6.064 1.779-13.977-4.285-17.674z" fill="#dbedff"/><path d="m89.927 55.63 32.713-19.946c6.064-3.697 13.977-1.779 17.674 4.285l9.71 15.926c3.697 6.064 1.779 13.977-4.285 17.674l-32.713 19.946c-6.064 3.697-13.977 1.778-17.674-4.286l-9.71-15.926c-3.698-6.063-1.779-13.976 4.285-17.673z" fill="#dbedff"/><g fill="#b5dcff"><path d="m236.882 35.392v-20.949c0-7.977 6.466-14.443 14.443-14.443h-29.558c-7.976 0-14.443 6.466-14.443 14.443v20.949c0 7.977 6.467 14.443 14.443 14.443h29.558c-7.977 0-14.443-6.466-14.443-14.443z"/><path d="m395.819 73.57c-6.064-3.697-7.982-11.61-4.285-17.674l8.394-13.767-10.568-6.444c-6.064-3.697-13.977-1.779-17.674 4.285l-9.71 15.926c-3.697 6.064-1.779 13.977 4.285 17.674l32.713 19.946c6.064 3.697 13.977 1.779 17.674-4.285l1.316-2.158z"/><path d="m115.2 73.304c-3.697-6.064-1.778-13.977 4.285-17.674l22.145-13.502-1.316-2.158c-3.697-6.064-11.61-7.982-17.674-4.285l-32.713 19.945c-6.064 3.697-7.982 11.61-4.285 17.674l9.71 15.926c3.697 6.064 11.61 7.983 17.674 4.285l10.568-6.443z"/></g><path d="m256.001 117.668c-100.147 0-181.622 81.475-181.622 181.621s81.475 181.621 181.622 181.621c100.146 0 181.621-81.475 181.621-181.621s-81.475-181.621-181.621-181.621zm89.661 321.468-6.341-10.983c-2.134-3.696-6.859-4.96-10.554-2.828-3.696 2.134-4.962 6.859-2.828 10.554l6.351 11c-20.706 10.746-43.943 17.26-68.563 18.393v-12.724c0-4.268-3.459-7.726-7.726-7.726s-7.726 3.459-7.726 7.726v12.724c-24.62-1.133-47.858-7.647-68.563-18.393l6.351-11c2.134-3.695.868-8.421-2.828-10.554-3.697-2.134-8.421-.868-10.555 2.828l-6.341 10.982c-20.103-12.934-37.25-30.081-50.184-50.184l10.983-6.341c3.695-2.134 4.962-6.859 2.828-10.554-2.133-3.696-6.859-4.961-10.554-2.828l-11 6.351c-10.747-20.706-17.261-43.943-18.393-68.563h12.724c4.267 0 7.726-3.459 7.726-7.726 0-4.268-3.459-7.726-7.726-7.726h-12.726c1.133-24.62 7.647-47.857 18.393-68.563l11.001 6.351c1.217.702 2.545 1.036 3.856 1.036 2.67 0 5.268-1.385 6.698-3.864 2.134-3.695.867-8.421-2.828-10.554l-10.983-6.341c12.934-20.103 30.081-37.251 50.185-50.185l6.341 10.983c1.431 2.479 4.028 3.864 6.698 3.864 1.311 0 2.639-.334 3.856-1.036 3.695-2.134 4.962-6.859 2.828-10.554l-6.351-11.001c20.706-10.746 43.943-17.26 68.563-18.393v12.724c0 4.268 3.459 7.726 7.726 7.726s7.726-3.459 7.726-7.726v-12.724c24.62 1.133 47.858 7.647 68.563 18.393l-6.351 11.001c-2.134 3.695-.867 8.421 2.828 10.554 1.217.702 2.545 1.036 3.856 1.036 2.67 0 5.267-1.385 6.698-3.864l6.341-10.984c20.104 12.934 37.251 30.081 50.185 50.185l-10.983 6.341c-3.696 2.134-4.962 6.859-2.828 10.554 1.431 2.479 4.028 3.864 6.698 3.864 1.311 0 2.639-.334 3.856-1.036l11.001-6.351c10.746 20.705 17.26 43.943 18.393 68.563h-12.724c-4.267 0-7.726 3.459-7.726 7.726 0 4.268 3.459 7.726 7.726 7.726h12.724c-1.133 24.62-7.647 47.858-18.393 68.564l-11-6.351c-3.696-2.134-8.421-.868-10.554 2.828-2.134 3.695-.868 8.421 2.828 10.554l10.983 6.341c-12.935 20.104-30.082 37.251-50.185 50.185z" fill="#3d8bd8"/><path d="m256 278.626c5.378 0 10.493 1.701 14.733 4.848v-102.177c0-8.137-6.596-14.733-14.732-14.733-8.137 0-14.733 6.596-14.733 14.733v102.177c4.239-3.147 9.355-4.848 14.732-4.848z" fill="#477b9e"/><g><g><path d="m256 181.297c0-5.45 2.967-10.197 7.366-12.746-2.169-1.256-4.68-1.987-7.366-1.987-8.137 0-14.733 6.596-14.733 14.733v102.177c4.24-3.147 9.355-4.848 14.732-4.848v-97.329z" fill="#3f6d8e"/></g></g><path d="m244.958 318.25c-4.656-2.689-8.236-6.72-10.335-11.565l-29.263 50.845c-4.044 7.004-1.767 16.047 5.229 20.105.044.025.087.05.131.076.044.025.088.051.132.076 7.013 4.03 15.982 1.48 20.026-5.524l29.263-50.844c-5.246.604-10.526-.48-15.183-3.169z" fill="#dd636e"/><path d="m222.358 357.53 22.605-39.277c-.002-.001-.004-.002-.006-.003-4.656-2.689-8.236-6.72-10.335-11.565l-29.262 50.845c-4.044 7.004-1.767 16.047 5.229 20.105.044.025.087.05.131.076.044.025.088.051.132.076 5.086 2.923 11.193 2.37 15.712-.818-6.18-4.317-8.044-12.792-4.206-19.439z" fill="#da4a54"/><g><path d="m256 324.075c-13.699 0-24.785-11.085-24.785-24.785 0-13.699 11.085-24.785 24.785-24.785 13.699 0 24.785 11.085 24.785 24.785 0 13.699-11.085 24.785-24.785 24.785z" fill="#477b9e"/></g><path d="m256 299.29c0-9.181 4.983-17.183 12.392-21.466-3.645-2.107-7.875-3.319-12.392-3.319-13.7 0-24.785 11.086-24.785 24.785 0 13.7 11.087 24.785 24.785 24.785 4.518 0 8.747-1.212 12.393-3.319-7.409-4.282-12.393-12.284-12.393-21.466z" fill="#3f6d8e"/></g></svg>