<svg fill="none" height="24" viewBox="0 0 24 24" width="24" xmlns="http://www.w3.org/2000/svg" xmlns:xlink="http://www.w3.org/1999/xlink"><linearGradient id="paint0_linear_130_8049" gradientUnits="userSpaceOnUse" x1="12" x2="12" y1="2" y2="22"><stop offset="0" stop-color="#138bd7"/><stop offset="1" stop-color="#62aafb"/></linearGradient><g fill="url(#paint0_linear_130_8049)"><path d="m11.9999 14c-5.00999 0-9.08999 3.36-9.08999 7.5 0 .28.22.5.5.5h17.17999c.28 0 .5-.22.5-.5 0-4.14-4.08-7.5-9.09-7.5z"/><path d="m16.7199 10.35-.96-.96c.5-.75.79-1.65.79-2.62 0-2.64-2.14-4.77-4.77-4.77-2.62999 0-4.77999 2.14-4.77999 4.77s2.14 4.77 4.76999 4.77c.97 0 1.87-.29 2.62-.79l.96.96c.19.19.44.28.68.28.25 0 .5-.09.68-.28.38-.37.38-.98.01-1.36z"/></g></svg>