<svg id="Flat_Gradient_copy" height="512" viewBox="0 0 64 64" width="512" xmlns="http://www.w3.org/2000/svg" xmlns:xlink="http://www.w3.org/1999/xlink" data-name="Flat Gradient copy"><linearGradient id="linear-gradient" gradientUnits="userSpaceOnUse" x1="7.035" x2="56.965" y1="32.027" y2="32.027"><stop offset="0" stop-color="#00c0ff"/><stop offset="1" stop-color="#5558ff"/></linearGradient><path d="m54 20.05h-43.9999a3.0002 3.0002 0 0 1 -.0001-6h44a3.0002 3.0002 0 0 1 0 6zm-21.53-14.05a7.92022 7.92022 0 0 1 7.66 6.05h2.05c-2.17881-10.69781-17.2767-10.6236-19.41.00013l2.05-.00013a7.88049 7.88049 0 0 1 7.65-6.05zm-21.03 16.05h41.1l-3.27 31.01a7.73533 7.73533 0 0 1 -7.71 6.94h-19.12a7.736 7.736 0 0 1 -7.71-6.95zm25.04 25.67993a1.00122 1.00122 0 0 0 2 .09008l.63-14.31994a1.00131 1.00131 0 0 0 -2-.0901zm-11.59-14.22993.63 14.32a1.001 1.001 0 0 0 2-.09l-.63-14.32a1.00471 1.00471 0 0 0 -1.05-.95.98911.98911 0 0 0 -.95 1.04z" fill="url(#linear-gradient)"/></svg>