<svg id="Layer_1" height="512" viewBox="0 0 48 48" width="512" xmlns="http://www.w3.org/2000/svg"><rect fill="#0588e2" height="19" rx="3" width="7" x="7" y="25"/><path d="m14 35h-7v-6.646c0-1.852 1.502-3.354 3.354-3.354h.292c1.852 0 3.354 1.502 3.354 3.354z" fill="#0075d3"/><circle cx="35" cy="21.5" fill="#ffc343" r="7"/><path d="m35 25c-2.824 0-5.342-1.303-6.992-3.338.087 3.79 3.181 6.838 6.992 6.838s6.905-3.048 6.992-6.838c-1.65 2.035-4.168 3.338-6.992 3.338z" fill="#ffa221"/><g fill="#ffc343"><path d="m47 22.5h-2c-.553 0-1-.448-1-1s.447-1 1-1h2c.553 0 1 .448 1 1s-.447 1-1 1z"/><path d="m42.428 15.429c-.286 0-.569-.122-.767-.357-.355-.423-.3-1.054.123-1.409l1.532-1.286c.425-.355 1.055-.298 1.408.124.355.423.3 1.054-.123 1.409l-1.532 1.286c-.188.157-.415.234-.642.234z"/><path d="m43.958 30.856c-.227 0-.454-.077-.642-.234l-1.532-1.286c-.424-.354-.479-.985-.123-1.408.354-.423.984-.479 1.408-.123l1.532 1.286c.424.354.479.985.123 1.408-.197.236-.48.357-.767.357z"/></g><path d="m11 31h3l16.996 7.575c3.303 1.445 7.004-.975 7.004-4.581v-24.988c0-3.606-3.7-6.026-7.004-4.581l-16.996 7.575h-3z" fill="#eff3f9"/><path d="m30.996 38.575c3.303 1.445 7.004-.975 7.004-4.581v-.77c-.849.3-1.8.354-2.753.071l-21.247-6.295h-3v4h3z" fill="#cfe0f3"/><path d="m14 31h-9c-2.761 0-5-2.239-5-5v-9c0-2.761 2.239-5 5-5h9z" fill="#47caf0"/><path d="m0 22v4c0 2.761 2.239 5 5 5h9v-4h-9c-2.761 0-5-2.239-5-5z" fill="#20aee1"/></svg>