<svg id="Layer_1" height="512" viewBox="0 0 48 48" width="512" xmlns="http://www.w3.org/2000/svg"><path d="m32 44h-3c-.552 0-1-.448-1-1s.448-1 1-1h3c3.86 0 7-3.14 7-7v-4c0-.552.448-1 1-1s1 .448 1 1v4c0 4.962-4.038 9-9 9z" fill="#aecee8"/><path d="m41 31c0-.552-.448-1-1-1s-1 .448-1 1v4c0 1.433-.434 2.766-1.176 3.877.927-.269 1.669-.972 1.992-1.877h.953c.147-.644.232-1.312.232-2v-4z" fill="#7eafd0"/><rect fill="#0075d3" height="6" rx="3" width="10" x="21" y="40"/><path d="m28 44h-4c-1.304 0-2.403-.837-2.816-2-.112.314-.184.647-.184 1 0 1.657 1.343 3 3 3h4c1.657 0 3-1.343 3-3 0-.353-.072-.686-.184-1-.413 1.163-1.512 2-2.816 2z" fill="#005ccc"/><path d="m40.5 26c-.829 0-1.5-.671-1.5-1.5v-4.5c0-8.271-6.729-15-15-15s-15 6.729-15 15v4.5c0 .829-.671 1.5-1.5 1.5s-1.5-.671-1.5-1.5v-4.5c0-9.925 8.075-18 18-18s18 8.075 18 18v4.5c0 .829-.671 1.5-1.5 1.5z" fill="#0075d3"/><path d="m42 20v4.5c0 .83-.67 1.5-1.5 1.5s-1.5-.67-1.5-1.5v-4.5c0-1.22-.14-2.4-.42-3.53.57.34 1.01.89 1.24 1.53h1.18c.31 0 .61.03.9.08.07.63.1 1.27.1 1.92z" fill="#005ccc"/><path d="m9.42 16.47c-.28 1.13-.42 2.31-.42 3.53v4.5c0 .83-.67 1.5-1.5 1.5s-1.5-.67-1.5-1.5v-4.5c0-.65.03-1.29.1-1.92.29-.05.59-.08.9-.08h1.18c.23-.64.67-1.19 1.24-1.53z" fill="#005ccc"/><path d="m9 34h-2c-2.757 0-5-2.243-5-5v-3c0-2.757 2.243-5 5-5h2c.552 0 1 .448 1 1v11c0 .552-.448 1-1 1z" fill="#47caf0"/><path d="m41 34h-2c-.552 0-1-.448-1-1v-11c0-.552.448-1 1-1h2c2.757 0 5 2.243 5 5v3c0 2.757-2.243 5-5 5z" fill="#47caf0"/><path d="m9 31h-2c-2.757 0-5-2.243-5-5v3c0 2.757 2.243 5 5 5h2c.552 0 1-.448 1-1v-3c0 .552-.448 1-1 1z" fill="#20aee1"/><path d="m41 31h-2c-.552 0-1-.448-1-1v3c0 .552.448 1 1 1h2c2.757 0 5-2.243 5-5v-3c0 2.757-2.243 5-5 5z" fill="#20aee1"/><rect fill="#0588e2" height="17" rx="3" width="7" x="8" y="19"/><rect fill="#0588e2" height="17" rx="3" width="7" x="33" y="19"/><g fill="#0075d3"><path d="m12 33h-1c-1.654 0-3-1.346-3-3v3c0 1.654 1.346 3 3 3h1c1.654 0 3-1.346 3-3v-3c0 1.654-1.346 3-3 3z"/><path d="m37 33h-1c-1.654 0-3-1.346-3-3v3c0 1.654 1.346 3 3 3h1c1.654 0 3-1.346 3-3v-3c0 1.654-1.346 3-3 3z"/></g></svg>