<svg id="Layer_1" height="512" viewBox="0 0 48 48" width="512" xmlns="http://www.w3.org/2000/svg"><path d="m14 17h-5c-.552 0-1-.448-1-1v-9c0-1.103.897-2 2-2h3c1.103 0 2 .897 2 2v9c0 .265-.105.52-.293.707s-.442.293-.707.293z" fill="#47caf0"/><path d="m11 17c-.552 0-1-.448-1-1v-9c0-1.103.897-2 2-2h-2c-1.103 0-2 .897-2 2v9c0 .552.448 1 1 1h5s0 0 0 0h-3.001z" fill="#20aee1"/><path d="m36 44h-24c-2.757 0-5-2.243-5-5v-19.83c0-.327.16-.633.428-.82l16-11.17c.344-.24.801-.24 1.145 0l16 11.17c.268.187.428.493.428.82v19.83c0 2.757-2.243 5-5 5z" fill="#eff3f9"/><path d="m37.622 41h-27.244c-1.224 0-2.355-.393-3.283-1.054.444 2.305 2.471 4.054 4.904 4.054h24c2.433 0 4.46-1.749 4.904-4.054-.928.661-2.059 1.054-3.283 1.054z" fill="#cfe0f3"/><path d="m40.572 18.35-16-11.17c-.344-.24-.801-.24-1.145 0l-15.999 11.17c-.268.187-.428.493-.428.82v7.317c.382-.16.756-.343 1.105-.577l15.895-10.597 15.895 10.597c.35.233.723.417 1.105.577v-7.317c0-.327-.16-.633-.428-.82z" fill="#cfe0f3"/><path d="m43.498 24.002c-.691 0-1.362-.204-1.939-.588l-17.559-11.706-17.559 11.706c-1.604 1.071-3.782.637-4.854-.971-.519-.778-.704-1.711-.52-2.628s.713-1.707 1.491-2.226l19.501-12.999c1.18-.786 2.703-.786 3.883 0l19.5 13c.778.519 1.307 1.309 1.491 2.226s-.001 1.85-.52 2.628c-.65.976-1.739 1.559-2.914 1.559z" fill="#0588e2"/><path d="m20 28h8c1.105 0 2 .895 2 2v14h-12v-14c0-1.105.895-2 2-2z" fill="#8c94af"/><path d="m20 41v-11c0-1.105.895-2 2-2h-2c-1.105 0-2 .895-2 2v14h12v-3z" fill="#6f7792"/></svg>