<svg id="Layer_1" height="512" viewBox="0 0 48 48" width="512" xmlns="http://www.w3.org/2000/svg"><rect fill="#eff3f9" height="42" rx="5" width="32" x="6" y="3"/><path d="m38 8v32c0 2.76-2.24 5-5 5h-22c-2.16 0-4.01-1.38-4.7-3.3.53.2 1.1.3 1.7.3h24c1.66 0 3-1.34 3-3v-6.42l-2.3 3.98c-.37.64-.89 1.19-1.51 1.6l-2.65 1.75c-.82.55-1.92-.08-1.86-1.07l.19-3.17c.05-.74.26-1.47.64-2.11l7.49-12.98v-15.58c0-.6-.1-1.17-.3-1.7 1.92.69 3.3 2.54 3.3 4.7z" fill="#cfe0f3"/><g fill="#aecee8"><path d="m21 11h-9c-.553 0-1-.448-1-1s.447-1 1-1h9c.553 0 1 .448 1 1s-.447 1-1 1z"/><path d="m30.29 17h-18.29c-.553 0-1-.448-1-1s.447-1 1-1h18.29c.553 0 1 .448 1 1s-.447 1-1 1z"/><path d="m26.82 23h-14.82c-.553 0-1-.448-1-1s.447-1 1-1h14.82c.553 0 1 .448 1 1s-.447 1-1 1z"/><path d="m23.36 29h-11.36c-.553 0-1-.448-1-1s.447-1 1-1h11.36c.553 0 1 .448 1 1s-.447 1-1 1z"/></g><path d="m12 39c-.124 0-.249-.023-.371-.072-.513-.205-.763-.787-.558-1.3l1.07-2.68c.311-.766 1.039-1.259 1.858-1.259s1.548.493 1.856 1.255l.368.92.113-.169c.361-.557.985-.896 1.662-.896s1.301.338 1.669.906l.865 1.294h.826c.553 0 1 .448 1 1s-.447 1-1 1h-1.36c-.334 0-.646-.167-.831-.444l-1.17-1.75-.637.959c-.33.473-.863.722-1.421.656-.546-.062-1.013-.417-1.219-.926l-.722-1.803-1.072 2.68c-.156.391-.532.629-.929.629z" fill="#7eafd0"/><path d="m29.191 37.165-2.65 1.749c-.825.545-1.918-.086-1.859-1.073l.19-3.169c.045-.744.262-1.467.634-2.112l12.975-22.473c.663-1.148 2.131-1.541 3.278-.878l1.039.6c1.148.663 1.541 2.131.878 3.278l-12.975 22.473c-.373.645-.89 1.195-1.512 1.606z" fill="#0ca0f2"/><path d="m42.8 9.807-.52-.3-17 29.445c.369.213.849.235 1.261-.038l2.65-1.749c.622-.411 1.14-.96 1.512-1.606l12.975-22.473c.663-1.148.269-2.616-.878-3.278z" fill="#0588e2"/><path d="m38.78 10.837h2v6h-2z" fill="#0075d3" transform="matrix(.5 -.866 .866 .5 7.907 41.369)"/><path d="m40.079 13.087h2v3h-2z" fill="#005ccc" transform="matrix(.5 -.866 .866 .5 7.907 42.869)"/></svg>