<svg id="Layer_1" height="512" viewBox="0 0 48 48" width="512" xmlns="http://www.w3.org/2000/svg"><rect fill="#ff8200" height="34" rx="5" width="46" x="1" y="7"/><path d="m47 12c0-2.757-2.243-5-5-5h-36c-2.757 0-5 2.243-5 5v.499l17.61 16.002c1.467 1.342 3.381 2.081 5.39 2.081s3.922-.739 5.382-2.074l17.618-16.01z" fill="#ff6500"/><path d="m42 41h-36c-1.727 0-3.252-.881-4.15-2.217l18.785-17.071c.943-.863 2.154-1.294 3.365-1.294s2.421.432 3.365 1.294l18.786 17.071c-.899 1.336-2.423 2.216-4.15 2.216z" fill="#ffa221"/><path d="m27.365 21.712c-.943-.863-2.154-1.294-3.365-1.294s-2.421.432-3.365 1.294l-4.748 4.315 2.723 2.474c1.467 1.342 3.381 2.081 5.39 2.081s3.922-.739 5.382-2.074l2.73-2.481-4.748-4.314z" fill="#ff8200"/><path d="m42 7h-36c-1.727 0-3.252.881-4.15 2.217l18.785 17.071c.943.863 2.154 1.294 3.365 1.294s2.421-.432 3.365-1.294l18.785-17.072c-.899-1.336-2.423-2.216-4.15-2.216z" fill="#ffc343"/></svg>