<svg width="18" height="22" viewBox="0 0 18 22" fill="none" xmlns="http://www.w3.org/2000/svg">
<path fill-rule="evenodd" clip-rule="evenodd" d="M13.5001 3.47819V3.70498C14.4548 3.79237 15.4017 3.90731 16.3398 4.04898C16.6871 4.10143 17.0332 4.15755 17.3781 4.2173C17.7863 4.28799 18.0598 4.67617 17.9891 5.0843C17.9184 5.49244 17.5302 5.76598 17.1221 5.69529C17.0525 5.68323 16.9829 5.67132 16.9131 5.65957L15.9077 18.7301C15.7875 20.2931 14.4842 21.5 12.9166 21.5H5.08369C3.51608 21.5 2.21276 20.2931 2.09253 18.7301L1.0871 5.65957C1.0174 5.67132 0.947739 5.68323 0.878134 5.69529C0.469998 5.76598 0.0818265 5.49244 0.011128 5.0843C-0.0595705 4.67617 0.213976 4.28799 0.622112 4.2173C0.96701 4.15755 1.31315 4.10143 1.66048 4.04898C2.59858 3.90731 3.5454 3.79237 4.50012 3.70498V3.47819C4.50012 1.91371 5.71265 0.578183 7.31556 0.526907C7.87491 0.509014 8.43648 0.5 9.00012 0.5C9.56377 0.5 10.1253 0.509014 10.6847 0.526907C12.2876 0.578183 13.5001 1.91371 13.5001 3.47819ZM7.36352 2.02614C7.90689 2.00876 8.45247 2 9.00012 2C9.54778 2 10.0934 2.00876 10.6367 2.02614C11.3913 2.05028 12.0001 2.68393 12.0001 3.47819V3.59082C11.0078 3.53056 10.0075 3.5 9.00012 3.5C7.99278 3.5 6.99249 3.53056 6.00012 3.59082V3.47819C6.00012 2.68393 6.6089 2.05028 7.36352 2.02614ZM7.00872 7.97118C6.9928 7.55727 6.64436 7.23463 6.23045 7.25055C5.81654 7.26647 5.49391 7.61492 5.50983 8.02882L5.85599 17.0288C5.8719 17.4427 6.22035 17.7654 6.63426 17.7494C7.04816 17.7335 7.3708 17.3851 7.35488 16.9712L7.00872 7.97118ZM12.4895 8.02882C12.5054 7.61492 12.1828 7.26647 11.7689 7.25055C11.355 7.23463 11.0065 7.55727 10.9906 7.97118L10.6444 16.9712C10.6285 17.3851 10.9512 17.7335 11.3651 17.7494C11.779 17.7654 12.1274 17.4427 12.1433 17.0288L12.4895 8.02882Z" fill="url(#paint0_linear_1735_3788)"/>
<defs>
<linearGradient id="paint0_linear_1735_3788" x1="9.00012" y1="0.5" x2="9.00012" y2="21.5" gradientUnits="userSpaceOnUse">
<stop stop-color="#F61941"/>
<stop offset="1" stop-color="#E96FAA"/>
</linearGradient>
</defs>
</svg>
